M48
; DRILL file KiCad 10.0.3 date 2026-05-16T08:47:51
; FORMAT={-:-/ absolute / metric / decimal}
; #@! TF.CreationDate,2026-05-16T08:47:51+02:00
; #@! TF.GenerationSoftware,Kicad,Pcbnew,10.0.3
; #@! TF.FileFunction,Plated,1,2,PTH
FMAT,2
METRIC
; #@! TA.AperFunction,Plated,PTH,ViaDrill
T1C0.300
; #@! TA.AperFunction,Plated,PTH,ComponentDrill
T2C0.800
; #@! TA.AperFunction,Plated,PTH,ComponentDrill
T3C1.000
; #@! TA.AperFunction,Plated,PTH,ComponentDrill
T4C1.300
%
G90
G05
T1
X96.012Y-87.884
X96.012Y-88.9
X96.012Y-89.916
X96.139Y-49.022
X98.298Y-74.93
X100.076Y-44.831
X100.584Y-66.294
X100.838Y-55.753
X100.965Y-74.93
X101.6Y-92.456
X101.981Y-47.498
X102.108Y-80.772
X102.108Y-83.312
X104.14Y-69.85
X104.14Y-91.44
X107.188Y-66.04
X107.696Y-67.31
X108.712Y-66.802
X121.285Y-91.44
X122.085Y-76.2
X123.698Y-89.535
X125.222Y-80.391
X125.222Y-85.217
X125.73Y-67.818
X127.0Y-67.818
X127.0Y-70.104
X129.286Y-74.168
X130.048Y-70.104
X130.302Y-75.295
X130.429Y-81.153
X132.334Y-73.914
X132.842Y-76.708
X133.284Y-81.976
X134.62Y-80.899
X135.001Y-83.312
X135.636Y-92.456
X135.89Y-70.358
X135.89Y-73.914
X136.144Y-76.571
X137.414Y-76.708
X137.922Y-47.625
X138.049Y-64.008
X139.192Y-81.28
X139.827Y-44.958
X140.208Y-69.342
X140.589Y-75.565
X141.986Y-76.708
X143.51Y-48.641
X143.51Y-61.976
X143.51Y-62.865
X144.018Y-79.502
X144.018Y-87.884
X144.018Y-88.9
X144.018Y-89.916
T2
X97.79Y-78.105
X97.79Y-80.645
X97.79Y-83.185
X97.79Y-85.725
X112.585Y-57.785
X112.585Y-60.325
X112.585Y-62.865
T3
X126.19Y-89.23
X126.19Y-91.77
X128.73Y-89.23
X128.73Y-91.77
X131.27Y-89.23
X131.27Y-91.77
X133.81Y-89.23
X133.81Y-91.77
T4
X117.094Y-59.365
X122.174Y-59.365
X127.254Y-59.365
X132.334Y-59.365
X137.414Y-59.365
X142.494Y-59.365
M30
