%TF.GenerationSoftware,KiCad,Pcbnew,10.0.3*%
%TF.CreationDate,2026-05-16T08:47:48+02:00*%
%TF.ProjectId,motor,6d6f746f-722e-46b6-9963-61645f706362,rev?*%
%TF.SameCoordinates,Original*%
%TF.FileFunction,Soldermask,Top*%
%TF.FilePolarity,Negative*%
%FSLAX46Y46*%
G04 Gerber Fmt 4.6, Leading zero omitted, Abs format (unit mm)*
G04 Created by KiCad (PCBNEW 10.0.3) date 2026-05-16 08:47:48*
%MOMM*%
%LPD*%
G01*
G04 APERTURE LIST*
G04 Aperture macros list*
%AMRoundRect*
0 Rectangle with rounded corners*
0 $1 Rounding radius*
0 $2 $3 $4 $5 $6 $7 $8 $9 X,Y pos of 4 corners*
0 Add a 4 corners polygon primitive as box body*
4,1,4,$2,$3,$4,$5,$6,$7,$8,$9,$2,$3,0*
0 Add four circle primitives for the rounded corners*
1,1,$1+$1,$2,$3*
1,1,$1+$1,$4,$5*
1,1,$1+$1,$6,$7*
1,1,$1+$1,$8,$9*
0 Add four rect primitives between the rounded corners*
20,1,$1+$1,$2,$3,$4,$5,0*
20,1,$1+$1,$4,$5,$6,$7,0*
20,1,$1+$1,$6,$7,$8,$9,0*
20,1,$1+$1,$8,$9,$2,$3,0*%
G04 Aperture macros list end*
%ADD10RoundRect,0.200000X0.275000X-0.200000X0.275000X0.200000X-0.275000X0.200000X-0.275000X-0.200000X0*%
%ADD11RoundRect,0.225000X0.250000X-0.225000X0.250000X0.225000X-0.250000X0.225000X-0.250000X-0.225000X0*%
%ADD12RoundRect,0.200000X-0.200000X-0.275000X0.200000X-0.275000X0.200000X0.275000X-0.200000X0.275000X0*%
%ADD13RoundRect,0.675000X0.575000X0.225000X-0.575000X0.225000X-0.575000X-0.225000X0.575000X-0.225000X0*%
%ADD14RoundRect,0.675000X-0.575000X-0.225000X0.575000X-0.225000X0.575000X0.225000X-0.575000X0.225000X0*%
%ADD15RoundRect,0.675000X0.225000X-0.575000X0.225000X0.575000X-0.225000X0.575000X-0.225000X-0.575000X0*%
%ADD16RoundRect,0.200000X-0.275000X0.200000X-0.275000X-0.200000X0.275000X-0.200000X0.275000X0.200000X0*%
%ADD17C,3.200000*%
%ADD18RoundRect,0.225000X-0.250000X0.225000X-0.250000X-0.225000X0.250000X-0.225000X0.250000X0.225000X0*%
%ADD19RoundRect,0.225000X0.225000X0.250000X-0.225000X0.250000X-0.225000X-0.250000X0.225000X-0.250000X0*%
%ADD20RoundRect,0.250000X0.325000X0.650000X-0.325000X0.650000X-0.325000X-0.650000X0.325000X-0.650000X0*%
%ADD21RoundRect,0.675000X-0.675000X-0.225000X0.675000X-0.225000X0.675000X0.225000X-0.675000X0.225000X0*%
%ADD22RoundRect,0.675000X0.675000X0.225000X-0.675000X0.225000X-0.675000X-0.225000X0.675000X-0.225000X0*%
%ADD23RoundRect,0.150000X0.150000X-0.587500X0.150000X0.587500X-0.150000X0.587500X-0.150000X-0.587500X0*%
%ADD24RoundRect,0.250000X1.050000X1.050000X-1.050000X1.050000X-1.050000X-1.050000X1.050000X-1.050000X0*%
%ADD25C,2.600000*%
%ADD26R,2.700000X1.800000*%
%ADD27RoundRect,0.250000X-0.850000X-0.350000X0.850000X-0.350000X0.850000X0.350000X-0.850000X0.350000X0*%
%ADD28RoundRect,0.249997X-2.950003X-2.650003X2.950003X-2.650003X2.950003X2.650003X-2.950003X2.650003X0*%
%ADD29RoundRect,0.200000X0.200000X0.275000X-0.200000X0.275000X-0.200000X-0.275000X0.200000X-0.275000X0*%
%ADD30RoundRect,0.250000X0.300000X0.300000X-0.300000X0.300000X-0.300000X-0.300000X0.300000X-0.300000X0*%
%ADD31R,1.700000X1.700000*%
%ADD32C,1.700000*%
G04 APERTURE END LIST*
D10*
%TO.C,R8*%
X133858000Y-78295000D03*
X133858000Y-76645000D03*
%TD*%
D11*
%TO.C,C6*%
X124460000Y-92215000D03*
X124460000Y-90665000D03*
%TD*%
D12*
%TO.C,R12*%
X99759000Y-85725000D03*
X101409000Y-85725000D03*
%TD*%
D13*
%TO.C,IC1*%
X103940000Y-92075000D03*
X103940000Y-89535000D03*
X103940000Y-86995000D03*
X103940000Y-84455000D03*
D14*
X122120000Y-86995000D03*
D13*
X103940000Y-81915000D03*
X103940000Y-79375000D03*
D14*
X122120000Y-92075000D03*
D13*
X103940000Y-76835000D03*
X103940000Y-74295000D03*
X103940000Y-71755000D03*
D15*
X107950000Y-70285000D03*
X110490000Y-70285000D03*
X113030000Y-70285000D03*
X115570000Y-70285000D03*
X118110000Y-70285000D03*
D14*
X122120000Y-71755000D03*
X122120000Y-74295000D03*
X122120000Y-76835000D03*
X122120000Y-79375000D03*
X122120000Y-81915000D03*
X122120000Y-84455000D03*
X122120000Y-89535000D03*
%TD*%
D16*
%TO.C,R13*%
X127508000Y-84265000D03*
X127508000Y-85915000D03*
%TD*%
D10*
%TO.C,R19*%
X131064000Y-85915000D03*
X131064000Y-84265000D03*
%TD*%
D12*
%TO.C,R11*%
X99759000Y-83185000D03*
X101409000Y-83185000D03*
%TD*%
D10*
%TO.C,R10*%
X143002000Y-78295000D03*
X143002000Y-76645000D03*
%TD*%
D17*
%TO.C,H3*%
X140000000Y-50000000D03*
%TD*%
D16*
%TO.C,R17*%
X129540000Y-84265000D03*
X129540000Y-85915000D03*
%TD*%
%TO.C,R18*%
X132588000Y-84265000D03*
X132588000Y-85915000D03*
%TD*%
D17*
%TO.C,H1*%
X100000000Y-90000000D03*
%TD*%
%TO.C,H2*%
X140000000Y-90000000D03*
%TD*%
D16*
%TO.C,R2*%
X131445000Y-72325000D03*
X131445000Y-73975000D03*
%TD*%
%TO.C,R25*%
X139954000Y-76645000D03*
X139954000Y-78295000D03*
%TD*%
D10*
%TO.C,R21*%
X125984000Y-79565000D03*
X125984000Y-77915000D03*
%TD*%
D16*
%TO.C,R16*%
X125984000Y-81090000D03*
X125984000Y-82740000D03*
%TD*%
D18*
%TO.C,C13*%
X124460000Y-77965000D03*
X124460000Y-79515000D03*
%TD*%
D17*
%TO.C,H4*%
X100000000Y-50000000D03*
%TD*%
D19*
%TO.C,C9*%
X98565000Y-72390000D03*
X97015000Y-72390000D03*
%TD*%
D18*
%TO.C,C10*%
X124460000Y-87490000D03*
X124460000Y-89040000D03*
%TD*%
D20*
%TO.C,C11*%
X99900000Y-74930000D03*
X96950000Y-74930000D03*
%TD*%
D10*
%TO.C,R14*%
X127508000Y-82740000D03*
X127508000Y-81090000D03*
%TD*%
D19*
%TO.C,C14*%
X142253000Y-82804000D03*
X140703000Y-82804000D03*
%TD*%
D21*
%TO.C,IC2*%
X112585500Y-62865000D03*
D22*
X112585500Y-60325000D03*
D21*
X112585500Y-57785000D03*
%TD*%
D23*
%TO.C,D2*%
X135956000Y-80947500D03*
X137856000Y-80947500D03*
X136906000Y-79072500D03*
%TD*%
D10*
%TO.C,R15*%
X125984000Y-85915000D03*
X125984000Y-84265000D03*
%TD*%
D18*
%TO.C,C4*%
X100330000Y-78600000D03*
X100330000Y-80150000D03*
%TD*%
%TO.C,C7*%
X124460000Y-84315000D03*
X124460000Y-85865000D03*
%TD*%
D19*
%TO.C,C5*%
X103645000Y-67310000D03*
X102095000Y-67310000D03*
%TD*%
D24*
%TO.C,J1*%
X142494000Y-59365000D03*
D25*
X137414000Y-59365000D03*
X132334000Y-59365000D03*
X127254000Y-59365000D03*
X122174000Y-59365000D03*
X117094000Y-59365000D03*
%TD*%
D26*
%TO.C,J4*%
X97790000Y-78105000D03*
D22*
X97790000Y-80645000D03*
X97790000Y-83185000D03*
X97790000Y-85725000D03*
%TD*%
D10*
%TO.C,R20*%
X134112000Y-85915000D03*
X134112000Y-84265000D03*
%TD*%
D27*
%TO.C,Q1*%
X134035000Y-69475000D03*
X134035000Y-71755000D03*
D28*
X140335000Y-71755000D03*
D27*
X134035000Y-74035000D03*
%TD*%
D29*
%TO.C,R22*%
X106870000Y-67310000D03*
X105220000Y-67310000D03*
%TD*%
D30*
%TO.C,D3*%
X99825000Y-67945000D03*
X97025000Y-67945000D03*
%TD*%
D16*
%TO.C,R24*%
X135382000Y-76645000D03*
X135382000Y-78295000D03*
%TD*%
D23*
%TO.C,D1*%
X140528000Y-80947500D03*
X142428000Y-80947500D03*
X141478000Y-79072500D03*
%TD*%
%TO.C,D4*%
X131384000Y-80947500D03*
X133284000Y-80947500D03*
X132334000Y-79072500D03*
%TD*%
D11*
%TO.C,C8*%
X124460000Y-82690000D03*
X124460000Y-81140000D03*
%TD*%
D19*
%TO.C,C12*%
X98565000Y-70485000D03*
X97015000Y-70485000D03*
%TD*%
D10*
%TO.C,R9*%
X138430000Y-78295000D03*
X138430000Y-76645000D03*
%TD*%
D16*
%TO.C,R3*%
X131445000Y-68960000D03*
X131445000Y-70610000D03*
%TD*%
%TO.C,R23*%
X130810000Y-76645000D03*
X130810000Y-78295000D03*
%TD*%
D31*
%TO.C,J2*%
X133810000Y-89230000D03*
D32*
X133810000Y-91770000D03*
X131270000Y-89230000D03*
X131270000Y-91770000D03*
X128730000Y-89230000D03*
X128730000Y-91770000D03*
X126190000Y-89230000D03*
X126190000Y-91770000D03*
%TD*%
M02*
