%TF.GenerationSoftware,KiCad,Pcbnew,10.0.3*%
%TF.CreationDate,2026-05-16T08:47:48+02:00*%
%TF.ProjectId,motor,6d6f746f-722e-46b6-9963-61645f706362,rev?*%
%TF.SameCoordinates,Original*%
%TF.FileFunction,Copper,L2,Bot*%
%TF.FilePolarity,Positive*%
%FSLAX46Y46*%
G04 Gerber Fmt 4.6, Leading zero omitted, Abs format (unit mm)*
G04 Created by KiCad (PCBNEW 10.0.3) date 2026-05-16 08:47:48*
%MOMM*%
%LPD*%
G01*
G04 APERTURE LIST*
G04 Aperture macros list*
%AMRoundRect*
0 Rectangle with rounded corners*
0 $1 Rounding radius*
0 $2 $3 $4 $5 $6 $7 $8 $9 X,Y pos of 4 corners*
0 Add a 4 corners polygon primitive as box body*
4,1,4,$2,$3,$4,$5,$6,$7,$8,$9,$2,$3,0*
0 Add four circle primitives for the rounded corners*
1,1,$1+$1,$2,$3*
1,1,$1+$1,$4,$5*
1,1,$1+$1,$6,$7*
1,1,$1+$1,$8,$9*
0 Add four rect primitives between the rounded corners*
20,1,$1+$1,$2,$3,$4,$5,0*
20,1,$1+$1,$4,$5,$6,$7,0*
20,1,$1+$1,$6,$7,$8,$9,0*
20,1,$1+$1,$8,$9,$2,$3,0*%
G04 Aperture macros list end*
%TA.AperFunction,ComponentPad*%
%ADD10RoundRect,0.675000X-0.675000X-0.225000X0.675000X-0.225000X0.675000X0.225000X-0.675000X0.225000X0*%
%TD*%
%TA.AperFunction,ComponentPad*%
%ADD11RoundRect,0.675000X0.675000X0.225000X-0.675000X0.225000X-0.675000X-0.225000X0.675000X-0.225000X0*%
%TD*%
%TA.AperFunction,ComponentPad*%
%ADD12RoundRect,0.250000X1.050000X1.050000X-1.050000X1.050000X-1.050000X-1.050000X1.050000X-1.050000X0*%
%TD*%
%TA.AperFunction,ComponentPad*%
%ADD13C,2.600000*%
%TD*%
%TA.AperFunction,ComponentPad*%
%ADD14R,2.700000X1.800000*%
%TD*%
%TA.AperFunction,ComponentPad*%
%ADD15R,1.700000X1.700000*%
%TD*%
%TA.AperFunction,ComponentPad*%
%ADD16C,1.700000*%
%TD*%
%TA.AperFunction,ViaPad*%
%ADD17C,0.600000*%
%TD*%
%TA.AperFunction,Conductor*%
%ADD18C,0.250000*%
%TD*%
%TA.AperFunction,Conductor*%
%ADD19C,0.600000*%
%TD*%
G04 APERTURE END LIST*
D10*
%TO.P,IC2,1,IN_1*%
%TO.N,VCC*%
X112585500Y-62865000D03*
D11*
%TO.P,IC2,2,GND_2*%
%TO.N,GND*%
X112585500Y-60325000D03*
D10*
%TO.P,IC2,3,OUT_3*%
%TO.N,Net-(D3-A)*%
X112585500Y-57785000D03*
%TD*%
D12*
%TO.P,J1,1,Pin_1_1*%
%TO.N,Net-(J1-Pin_1)*%
X142494000Y-59365000D03*
D13*
%TO.P,J1,2,Pin_2_2*%
%TO.N,Net-(J1-Pin_2)*%
X137414000Y-59365000D03*
%TO.P,J1,3,Pin_3_3*%
%TO.N,Net-(J1-Pin_3)*%
X132334000Y-59365000D03*
%TO.P,J1,4,Pin_4_4*%
%TO.N,Net-(J1-Pin_4)*%
X127254000Y-59365000D03*
%TO.P,J1,5,Pin_5_5*%
%TO.N,GND*%
X122174000Y-59365000D03*
%TO.P,J1,6,Pin_6_6*%
%TO.N,VCC*%
X117094000Y-59365000D03*
%TD*%
D14*
%TO.P,J4,1,Pin_1_1*%
%TO.N,+5V*%
X97790000Y-78105000D03*
D11*
%TO.P,J4,2,Pin_2_2*%
%TO.N,GND*%
X97790000Y-80645000D03*
%TO.P,J4,3,Pin_3_3*%
%TO.N,Net-(J4-Pin_3)*%
X97790000Y-83185000D03*
%TO.P,J4,4,Pin_4_4*%
%TO.N,Net-(J4-Pin_4)*%
X97790000Y-85725000D03*
%TD*%
D15*
%TO.P,J2,1,Pin_1_1*%
%TO.N,Net-(J2-Pin_1)*%
X133810000Y-89230000D03*
D16*
%TO.P,J2,2,Pin_2_2*%
%TO.N,Net-(J2-Pin_2)*%
X133810000Y-91770000D03*
%TO.P,J2,3,Pin_3_3*%
%TO.N,Net-(J2-Pin_3)*%
X131270000Y-89230000D03*
%TO.P,J2,4,Pin_4_4*%
%TO.N,Net-(J2-Pin_4)*%
X131270000Y-91770000D03*
%TO.P,J2,5,Pin_5_5*%
%TO.N,Net-(J2-Pin_5)*%
X128730000Y-89230000D03*
%TO.P,J2,6,Pin_6_6*%
%TO.N,Net-(J2-Pin_6)*%
X128730000Y-91770000D03*
%TO.P,J2,7,Pin_7_7*%
%TO.N,+3V3*%
X126190000Y-89230000D03*
%TO.P,J2,8,Pin_8_8*%
%TO.N,GND*%
X126190000Y-91770000D03*
%TD*%
D17*
%TO.N,GND*%
X139192000Y-81280000D03*
X134620000Y-80899000D03*
X130429000Y-81153000D03*
X125222000Y-80391000D03*
X140589000Y-75565000D03*
X138049000Y-64008000D03*
X143510000Y-62865000D03*
X143510000Y-61976000D03*
X144018000Y-79502000D03*
X135001000Y-83312000D03*
X100838000Y-55753000D03*
X96139000Y-49022000D03*
X143510000Y-48641000D03*
%TO.N,+3V3*%
X133284000Y-81976000D03*
%TO.N,Net-(J1-Pin_3)*%
X132842000Y-76708000D03*
%TO.N,+5V*%
X121285000Y-91440000D03*
X100965000Y-74930000D03*
%TO.N,GND*%
X139827000Y-44958000D03*
X100584000Y-66294000D03*
X144018000Y-88900000D03*
X130048000Y-70104000D03*
X125222000Y-85217000D03*
X96012000Y-88900000D03*
X135636000Y-92456000D03*
X132334000Y-73914000D03*
X101600000Y-92456000D03*
X144018000Y-89916000D03*
X102108000Y-80772000D03*
X127000000Y-70104000D03*
X100076000Y-44831000D03*
X104140000Y-69850000D03*
X101981000Y-47498000D03*
X129286000Y-74168000D03*
X135890000Y-70358000D03*
X98298000Y-74930000D03*
X107188000Y-66040000D03*
X108712000Y-66802000D03*
X127000000Y-67818000D03*
X125730000Y-67818000D03*
X144018000Y-87884000D03*
X135890000Y-73914000D03*
X96012000Y-87884000D03*
X137922000Y-47625000D03*
X123698000Y-89535000D03*
X96012000Y-89916000D03*
%TO.N,UART_TX*%
X102108000Y-83312000D03*
X104140000Y-91440000D03*
%TO.N,BUTTON_L*%
X136144000Y-76571000D03*
X130302000Y-75295000D03*
%TO.N,SENSE_VIN*%
X107696000Y-67310000D03*
X122085000Y-76200000D03*
%TO.N,Net-(J1-Pin_1)*%
X141986000Y-76708000D03*
%TO.N,Net-(J1-Pin_2)*%
X137414000Y-76708000D03*
%TO.N,Net-(J1-Pin_4)*%
X140208000Y-69342000D03*
%TD*%
%TO.N,+3V3*%
D18*
X126190000Y-86662000D02*
X126190000Y-89230000D01*
X130876000Y-81976000D02*
X126190000Y-86662000D01*
X133284000Y-81976000D02*
X130876000Y-81976000D01*
%TO.N,Net-(J1-Pin_3)*%
X141086000Y-72399604D02*
X141086000Y-63673396D01*
X138909302Y-61496698D02*
X134465698Y-61496698D01*
X141086000Y-63673396D02*
X138909302Y-61496698D01*
X134465698Y-61496698D02*
X132334000Y-59365000D01*
X132842000Y-76708000D02*
X133604000Y-75946000D01*
X133604000Y-75946000D02*
X137539604Y-75946000D01*
X137539604Y-75946000D02*
X141086000Y-72399604D01*
%TO.N,+5V*%
D19*
X102870000Y-74930000D02*
X100965000Y-74930000D01*
X119380000Y-71120000D02*
X106680000Y-71120000D01*
X121285000Y-73025000D02*
X119380000Y-71120000D01*
X121285000Y-91440000D02*
X121285000Y-73025000D01*
X106680000Y-71120000D02*
X102870000Y-74930000D01*
%TO.N,UART_TX*%
D18*
X104140000Y-91440000D02*
X104140000Y-85344000D01*
X104140000Y-85344000D02*
X102108000Y-83312000D01*
%TO.N,BUTTON_L*%
X130413000Y-75295000D02*
X130302000Y-75295000D01*
X136144000Y-76571000D02*
X136027000Y-76454000D01*
X133100884Y-77333000D02*
X132451000Y-77333000D01*
X133979884Y-76454000D02*
X133100884Y-77333000D01*
X132451000Y-77333000D02*
X130413000Y-75295000D01*
X136027000Y-76454000D02*
X133979884Y-76454000D01*
%TO.N,SENSE_VIN*%
X108966000Y-70358000D02*
X107696000Y-69088000D01*
X121920000Y-76035000D02*
X121920000Y-72776117D01*
X122085000Y-76200000D02*
X121920000Y-76035000D01*
X119501883Y-70358000D02*
X108966000Y-70358000D01*
X121920000Y-72776117D02*
X119501883Y-70358000D01*
X107696000Y-69088000D02*
X107696000Y-67310000D01*
%TO.N,Net-(J1-Pin_1)*%
X142494000Y-59365000D02*
X141986000Y-59873000D01*
X141986000Y-59873000D02*
X141986000Y-76708000D01*
%TO.N,Net-(J1-Pin_2)*%
X137414000Y-76708000D02*
X141536000Y-72586000D01*
X141536000Y-63487000D02*
X137414000Y-59365000D01*
X141536000Y-72586000D02*
X141536000Y-63487000D01*
%TO.N,Net-(J1-Pin_4)*%
D19*
X140208000Y-64008000D02*
X138684000Y-62484000D01*
X130373000Y-62484000D02*
X127254000Y-59365000D01*
X140208000Y-69342000D02*
X140208000Y-64008000D01*
X138684000Y-62484000D02*
X130373000Y-62484000D01*
%TD*%
%TA.AperFunction,Conductor*%
%TO.N,GND*%
G36*
X102442539Y-44020185D02*
G01*
X102488294Y-44072989D01*
X102499500Y-44124500D01*
X102499500Y-53131127D01*
X102526123Y-53333339D01*
X102533730Y-53391116D01*
X102601079Y-53642466D01*
X102601602Y-53644418D01*
X102601605Y-53644428D01*
X102701955Y-53886693D01*
X102701960Y-53886704D01*
X102833072Y-54113795D01*
X102833083Y-54113811D01*
X102992716Y-54321849D01*
X102992722Y-54321856D01*
X103178143Y-54507277D01*
X103178149Y-54507282D01*
X103386197Y-54666923D01*
X103386204Y-54666927D01*
X103613295Y-54798039D01*
X103613300Y-54798041D01*
X103613303Y-54798043D01*
X103855581Y-54898398D01*
X104108884Y-54966270D01*
X104368880Y-55000500D01*
X104368887Y-55000500D01*
X135631113Y-55000500D01*
X135631120Y-55000500D01*
X135891116Y-54966270D01*
X136144419Y-54898398D01*
X136386697Y-54798043D01*
X136613803Y-54666923D01*
X136821851Y-54507282D01*
X137007282Y-54321851D01*
X137166923Y-54113803D01*
X137298043Y-53886697D01*
X137398398Y-53644419D01*
X137466270Y-53391116D01*
X137500500Y-53131120D01*
X137500500Y-53000000D01*
X137500500Y-52934108D01*
X137500500Y-49878711D01*
X138149500Y-49878711D01*
X138149500Y-50121288D01*
X138181161Y-50361785D01*
X138243947Y-50596104D01*
X138336773Y-50820205D01*
X138336776Y-50820212D01*
X138458064Y-51030289D01*
X138458066Y-51030292D01*
X138458067Y-51030293D01*
X138605733Y-51222736D01*
X138605739Y-51222743D01*
X138777256Y-51394260D01*
X138777262Y-51394265D01*
X138969711Y-51541936D01*
X139179788Y-51663224D01*
X139403900Y-51756054D01*
X139638211Y-51818838D01*
X139818586Y-51842584D01*
X139878711Y-51850500D01*
X139878712Y-51850500D01*
X140121289Y-51850500D01*
X140169388Y-51844167D01*
X140361789Y-51818838D01*
X140596100Y-51756054D01*
X140820212Y-51663224D01*
X141030289Y-51541936D01*
X141222738Y-51394265D01*
X141394265Y-51222738D01*
X141541936Y-51030289D01*
X141663224Y-50820212D01*
X141756054Y-50596100D01*
X141818838Y-50361789D01*
X141850500Y-50121288D01*
X141850500Y-49878712D01*
X141818838Y-49638211D01*
X141756054Y-49403900D01*
X141663224Y-49179788D01*
X141541936Y-48969711D01*
X141394265Y-48777262D01*
X141394260Y-48777256D01*
X141222743Y-48605739D01*
X141222736Y-48605733D01*
X141030293Y-48458067D01*
X141030292Y-48458066D01*
X141030289Y-48458064D01*
X140820212Y-48336776D01*
X140820205Y-48336773D01*
X140596104Y-48243947D01*
X140361785Y-48181161D01*
X140121289Y-48149500D01*
X140121288Y-48149500D01*
X139878712Y-48149500D01*
X139878711Y-48149500D01*
X139638214Y-48181161D01*
X139403895Y-48243947D01*
X139179794Y-48336773D01*
X139179785Y-48336777D01*
X138969706Y-48458067D01*
X138777263Y-48605733D01*
X138777256Y-48605739D01*
X138605739Y-48777256D01*
X138605733Y-48777263D01*
X138458067Y-48969706D01*
X138336777Y-49179785D01*
X138336773Y-49179794D01*
X138243947Y-49403895D01*
X138181161Y-49638214D01*
X138149500Y-49878711D01*
X137500500Y-49878711D01*
X137500500Y-44124500D01*
X137520185Y-44057461D01*
X137572989Y-44011706D01*
X137624500Y-44000500D01*
X139741324Y-44000500D01*
X139808363Y-44020185D01*
X139829005Y-44036819D01*
X144463181Y-48670995D01*
X144496666Y-48732318D01*
X144499500Y-48758676D01*
X144499500Y-58044117D01*
X144479815Y-58111156D01*
X144427011Y-58156911D01*
X144357853Y-58166855D01*
X144294297Y-58137830D01*
X144257794Y-58083122D01*
X144244869Y-58044117D01*
X144228814Y-57995666D01*
X144136712Y-57846344D01*
X144012656Y-57722288D01*
X143863334Y-57630186D01*
X143696797Y-57575001D01*
X143696795Y-57575000D01*
X143594010Y-57564500D01*
X141393998Y-57564500D01*
X141393981Y-57564501D01*
X141291203Y-57575000D01*
X141291200Y-57575001D01*
X141124668Y-57630185D01*
X141124663Y-57630187D01*
X140975342Y-57722289D01*
X140851289Y-57846342D01*
X140759187Y-57995663D01*
X140759185Y-57995668D01*
X140754962Y-58008412D01*
X140704001Y-58162203D01*
X140704001Y-58162204D01*
X140704000Y-58162204D01*
X140693500Y-58264983D01*
X140693500Y-60465001D01*
X140693501Y-60465018D01*
X140704000Y-60567796D01*
X140704001Y-60567799D01*
X140754962Y-60721587D01*
X140759186Y-60734334D01*
X140851288Y-60883656D01*
X140975344Y-61007712D01*
X141124666Y-61099814D01*
X141228436Y-61134200D01*
X141275504Y-61149797D01*
X141332949Y-61189570D01*
X141359772Y-61254086D01*
X141360500Y-61267503D01*
X141360500Y-62127548D01*
X141340815Y-62194587D01*
X141288011Y-62240342D01*
X141218853Y-62250286D01*
X141155297Y-62221261D01*
X141148819Y-62215229D01*
X139109719Y-60176129D01*
X139076234Y-60114806D01*
X139081218Y-60045114D01*
X139082804Y-60041082D01*
X139122606Y-59944993D01*
X139183693Y-59717014D01*
X139214500Y-59483011D01*
X139214500Y-59246989D01*
X139183693Y-59012986D01*
X139122606Y-58785007D01*
X139032284Y-58566951D01*
X139032282Y-58566948D01*
X139032280Y-58566943D01*
X138990118Y-58493918D01*
X138914273Y-58362550D01*
X138770592Y-58175301D01*
X138770587Y-58175295D01*
X138603704Y-58008412D01*
X138603697Y-58008406D01*
X138416454Y-57864730D01*
X138416453Y-57864729D01*
X138416450Y-57864727D01*
X138334957Y-57817677D01*
X138212056Y-57746719D01*
X138212045Y-57746714D01*
X137993993Y-57656394D01*
X137766010Y-57595306D01*
X137532020Y-57564501D01*
X137532017Y-57564500D01*
X137532011Y-57564500D01*
X137295989Y-57564500D01*
X137295983Y-57564500D01*
X137295979Y-57564501D01*
X137061989Y-57595306D01*
X136834006Y-57656394D01*
X136615954Y-57746714D01*
X136615943Y-57746719D01*
X136411545Y-57864730D01*
X136224302Y-58008406D01*
X136224295Y-58008412D01*
X136057412Y-58175295D01*
X136057406Y-58175302D01*
X135913730Y-58362545D01*
X135913727Y-58362549D01*
X135913727Y-58362550D01*
X135906014Y-58375909D01*
X135795719Y-58566943D01*
X135795714Y-58566954D01*
X135705394Y-58785006D01*
X135644306Y-59012989D01*
X135613501Y-59246979D01*
X135613500Y-59246995D01*
X135613500Y-59483004D01*
X135613501Y-59483020D01*
X135644306Y-59717010D01*
X135705394Y-59944993D01*
X135795714Y-60163045D01*
X135795719Y-60163056D01*
X135858815Y-60272339D01*
X135913727Y-60367450D01*
X135913729Y-60367453D01*
X135913730Y-60367454D01*
X136057406Y-60554697D01*
X136057412Y-60554704D01*
X136162225Y-60659517D01*
X136195710Y-60720840D01*
X136190726Y-60790532D01*
X136148854Y-60846465D01*
X136083390Y-60870882D01*
X136074544Y-60871198D01*
X134776150Y-60871198D01*
X134709111Y-60851513D01*
X134688469Y-60834879D01*
X134029719Y-60176129D01*
X133996234Y-60114806D01*
X134001218Y-60045114D01*
X134002804Y-60041082D01*
X134042606Y-59944993D01*
X134103693Y-59717014D01*
X134134500Y-59483011D01*
X134134500Y-59246989D01*
X134103693Y-59012986D01*
X134042606Y-58785007D01*
X133952284Y-58566951D01*
X133952282Y-58566948D01*
X133952280Y-58566943D01*
X133910118Y-58493918D01*
X133834273Y-58362550D01*
X133690592Y-58175301D01*
X133690587Y-58175295D01*
X133523704Y-58008412D01*
X133523697Y-58008406D01*
X133336454Y-57864730D01*
X133336453Y-57864729D01*
X133336450Y-57864727D01*
X133254957Y-57817677D01*
X133132056Y-57746719D01*
X133132045Y-57746714D01*
X132913993Y-57656394D01*
X132686010Y-57595306D01*
X132452020Y-57564501D01*
X132452017Y-57564500D01*
X132452011Y-57564500D01*
X132215989Y-57564500D01*
X132215983Y-57564500D01*
X132215979Y-57564501D01*
X131981989Y-57595306D01*
X131754006Y-57656394D01*
X131535954Y-57746714D01*
X131535943Y-57746719D01*
X131331545Y-57864730D01*
X131144302Y-58008406D01*
X131144295Y-58008412D01*
X130977412Y-58175295D01*
X130977406Y-58175302D01*
X130833730Y-58362545D01*
X130833727Y-58362549D01*
X130833727Y-58362550D01*
X130826014Y-58375909D01*
X130715719Y-58566943D01*
X130715714Y-58566954D01*
X130625394Y-58785006D01*
X130564306Y-59012989D01*
X130533501Y-59246979D01*
X130533500Y-59246995D01*
X130533500Y-59483004D01*
X130533501Y-59483020D01*
X130564306Y-59717010D01*
X130625394Y-59944993D01*
X130715714Y-60163045D01*
X130715719Y-60163056D01*
X130778815Y-60272339D01*
X130833727Y-60367450D01*
X130833729Y-60367453D01*
X130833730Y-60367454D01*
X130977406Y-60554697D01*
X130977412Y-60554704D01*
X131144295Y-60721587D01*
X131144302Y-60721593D01*
X131254306Y-60806001D01*
X131331550Y-60865273D01*
X131434995Y-60924997D01*
X131535943Y-60983280D01*
X131535948Y-60983282D01*
X131535951Y-60983284D01*
X131754007Y-61073606D01*
X131981986Y-61134693D01*
X132215989Y-61165500D01*
X132215996Y-61165500D01*
X132452004Y-61165500D01*
X132452011Y-61165500D01*
X132686014Y-61134693D01*
X132913993Y-61073606D01*
X133009999Y-61033838D01*
X133079463Y-61026370D01*
X133141943Y-61057644D01*
X133145129Y-61060719D01*
X133556229Y-61471819D01*
X133589714Y-61533142D01*
X133584730Y-61602834D01*
X133542858Y-61658767D01*
X133477394Y-61683184D01*
X133468548Y-61683500D01*
X130755940Y-61683500D01*
X130688901Y-61663815D01*
X130668259Y-61647181D01*
X129013961Y-59992883D01*
X128980476Y-59931560D01*
X128981867Y-59873108D01*
X128982730Y-59869888D01*
X129023693Y-59717014D01*
X129054500Y-59483011D01*
X129054500Y-59246989D01*
X129023693Y-59012986D01*
X128962606Y-58785007D01*
X128872284Y-58566951D01*
X128872282Y-58566948D01*
X128872280Y-58566943D01*
X128830118Y-58493918D01*
X128754273Y-58362550D01*
X128610592Y-58175301D01*
X128610587Y-58175295D01*
X128443704Y-58008412D01*
X128443697Y-58008406D01*
X128256454Y-57864730D01*
X128256453Y-57864729D01*
X128256450Y-57864727D01*
X128174957Y-57817677D01*
X128052056Y-57746719D01*
X128052045Y-57746714D01*
X127833993Y-57656394D01*
X127606010Y-57595306D01*
X127372020Y-57564501D01*
X127372017Y-57564500D01*
X127372011Y-57564500D01*
X127135989Y-57564500D01*
X127135983Y-57564500D01*
X127135979Y-57564501D01*
X126901989Y-57595306D01*
X126674006Y-57656394D01*
X126455954Y-57746714D01*
X126455943Y-57746719D01*
X126251545Y-57864730D01*
X126064302Y-58008406D01*
X126064295Y-58008412D01*
X125897412Y-58175295D01*
X125897406Y-58175302D01*
X125753730Y-58362545D01*
X125753727Y-58362549D01*
X125753727Y-58362550D01*
X125746014Y-58375909D01*
X125635719Y-58566943D01*
X125635714Y-58566954D01*
X125545394Y-58785006D01*
X125484306Y-59012989D01*
X125453501Y-59246979D01*
X125453500Y-59246995D01*
X125453500Y-59483004D01*
X125453501Y-59483020D01*
X125484306Y-59717010D01*
X125545394Y-59944993D01*
X125635714Y-60163045D01*
X125635719Y-60163056D01*
X125698815Y-60272339D01*
X125753727Y-60367450D01*
X125753729Y-60367453D01*
X125753730Y-60367454D01*
X125897406Y-60554697D01*
X125897412Y-60554704D01*
X126064295Y-60721587D01*
X126064302Y-60721593D01*
X126174306Y-60806001D01*
X126251550Y-60865273D01*
X126354995Y-60924997D01*
X126455943Y-60983280D01*
X126455948Y-60983282D01*
X126455951Y-60983284D01*
X126674007Y-61073606D01*
X126901986Y-61134693D01*
X127135989Y-61165500D01*
X127135996Y-61165500D01*
X127372004Y-61165500D01*
X127372011Y-61165500D01*
X127606014Y-61134693D01*
X127762109Y-61092867D01*
X127831958Y-61094530D01*
X127881883Y-61124961D01*
X129751211Y-62994289D01*
X129862711Y-63105789D01*
X129862712Y-63105790D01*
X129993814Y-63193390D01*
X129993827Y-63193397D01*
X130137948Y-63253093D01*
X130139503Y-63253737D01*
X130294153Y-63284499D01*
X130294156Y-63284500D01*
X130294158Y-63284500D01*
X138301060Y-63284500D01*
X138368099Y-63304185D01*
X138388741Y-63320819D01*
X139371181Y-64303259D01*
X139404666Y-64364582D01*
X139407500Y-64390940D01*
X139407500Y-69420844D01*
X139438261Y-69575489D01*
X139438264Y-69575501D01*
X139498602Y-69721172D01*
X139498609Y-69721185D01*
X139586210Y-69852288D01*
X139586213Y-69852292D01*
X139697707Y-69963786D01*
X139697711Y-69963789D01*
X139828814Y-70051390D01*
X139828827Y-70051397D01*
X139955498Y-70103865D01*
X139974503Y-70111737D01*
X140103690Y-70137434D01*
X140129153Y-70142499D01*
X140129156Y-70142500D01*
X140129158Y-70142500D01*
X140286841Y-70142500D01*
X140286842Y-70142500D01*
X140312308Y-70137434D01*
X140381897Y-70143660D01*
X140437075Y-70186521D01*
X140460322Y-70252410D01*
X140460500Y-70259051D01*
X140460500Y-72089152D01*
X140440815Y-72156191D01*
X140424181Y-72176833D01*
X137316833Y-75284181D01*
X137255510Y-75317666D01*
X137229152Y-75320500D01*
X133542389Y-75320500D01*
X133421555Y-75344535D01*
X133421541Y-75344539D01*
X133392410Y-75356605D01*
X133392411Y-75356606D01*
X133307713Y-75391688D01*
X133307714Y-75391689D01*
X133205268Y-75460140D01*
X133161705Y-75503703D01*
X133118142Y-75547267D01*
X133118139Y-75547270D01*
X132783203Y-75882205D01*
X132721880Y-75915690D01*
X132719714Y-75916141D01*
X132608508Y-75938261D01*
X132608498Y-75938264D01*
X132462827Y-75998602D01*
X132462814Y-75998609D01*
X132331711Y-76086210D01*
X132331706Y-76086214D01*
X132297935Y-76119985D01*
X132236612Y-76153470D01*
X132166920Y-76148484D01*
X132122574Y-76119984D01*
X131094582Y-75091992D01*
X131067705Y-75051769D01*
X131011394Y-74915821D01*
X131011392Y-74915818D01*
X131011390Y-74915814D01*
X130923789Y-74784711D01*
X130923786Y-74784707D01*
X130812292Y-74673213D01*
X130812288Y-74673210D01*
X130681185Y-74585609D01*
X130681172Y-74585602D01*
X130535501Y-74525264D01*
X130535489Y-74525261D01*
X130380845Y-74494500D01*
X130380842Y-74494500D01*
X130223158Y-74494500D01*
X130223155Y-74494500D01*
X130068510Y-74525261D01*
X130068498Y-74525264D01*
X129922827Y-74585602D01*
X129922814Y-74585609D01*
X129791711Y-74673210D01*
X129791707Y-74673213D01*
X129680213Y-74784707D01*
X129680210Y-74784711D01*
X129592609Y-74915814D01*
X129592602Y-74915827D01*
X129532264Y-75061498D01*
X129532261Y-75061510D01*
X129501500Y-75216153D01*
X129501500Y-75373846D01*
X129532261Y-75528489D01*
X129532264Y-75528501D01*
X129592602Y-75674172D01*
X129592609Y-75674185D01*
X129680210Y-75805288D01*
X129680213Y-75805292D01*
X129791707Y-75916786D01*
X129791711Y-75916789D01*
X129922814Y-76004390D01*
X129922827Y-76004397D01*
X130068498Y-76064735D01*
X130068503Y-76064737D01*
X130223153Y-76095499D01*
X130223156Y-76095500D01*
X130223158Y-76095500D01*
X130277548Y-76095500D01*
X130344587Y-76115185D01*
X130365229Y-76131819D01*
X131962016Y-77728606D01*
X131962045Y-77728637D01*
X132052263Y-77818855D01*
X132052267Y-77818858D01*
X132154707Y-77887307D01*
X132154711Y-77887309D01*
X132154714Y-77887311D01*
X132268548Y-77934463D01*
X132328971Y-77946481D01*
X132389393Y-77958500D01*
X133162491Y-77958500D01*
X133222913Y-77946481D01*
X133283336Y-77934463D01*
X133316676Y-77920652D01*
X133397170Y-77887312D01*
X133448393Y-77853084D01*
X133499617Y-77818858D01*
X133586742Y-77731733D01*
X133586742Y-77731731D01*
X133596950Y-77721524D01*
X133596951Y-77721521D01*
X134202656Y-77115819D01*
X134263979Y-77082334D01*
X134290337Y-77079500D01*
X135469059Y-77079500D01*
X135536098Y-77099185D01*
X135556740Y-77115819D01*
X135633707Y-77192786D01*
X135633711Y-77192789D01*
X135764814Y-77280390D01*
X135764827Y-77280397D01*
X135884072Y-77329789D01*
X135910503Y-77340737D01*
X136065153Y-77371499D01*
X136065156Y-77371500D01*
X136065158Y-77371500D01*
X136222844Y-77371500D01*
X136222845Y-77371499D01*
X136377497Y-77340737D01*
X136523179Y-77280394D01*
X136637069Y-77204294D01*
X136703742Y-77183418D01*
X136771123Y-77201902D01*
X136793638Y-77219717D01*
X136903707Y-77329786D01*
X136903711Y-77329789D01*
X137034814Y-77417390D01*
X137034827Y-77417397D01*
X137180498Y-77477735D01*
X137180503Y-77477737D01*
X137335153Y-77508499D01*
X137335156Y-77508500D01*
X137335158Y-77508500D01*
X137492844Y-77508500D01*
X137492845Y-77508499D01*
X137647497Y-77477737D01*
X137793179Y-77417394D01*
X137924289Y-77329789D01*
X138035789Y-77218289D01*
X138123394Y-77087179D01*
X138183737Y-76941497D01*
X138205858Y-76830282D01*
X138238240Y-76768375D01*
X138239734Y-76766854D01*
X141148821Y-73857768D01*
X141210142Y-73824285D01*
X141279834Y-73829269D01*
X141335767Y-73871141D01*
X141360184Y-73936605D01*
X141360500Y-73945451D01*
X141360500Y-76165650D01*
X141340815Y-76232689D01*
X141339602Y-76234541D01*
X141276609Y-76328815D01*
X141276602Y-76328828D01*
X141216264Y-76474498D01*
X141216261Y-76474510D01*
X141185500Y-76629153D01*
X141185500Y-76786846D01*
X141216261Y-76941489D01*
X141216264Y-76941501D01*
X141276602Y-77087172D01*
X141276609Y-77087185D01*
X141364210Y-77218288D01*
X141364213Y-77218292D01*
X141475707Y-77329786D01*
X141475711Y-77329789D01*
X141606814Y-77417390D01*
X141606827Y-77417397D01*
X141752498Y-77477735D01*
X141752503Y-77477737D01*
X141907153Y-77508499D01*
X141907156Y-77508500D01*
X141907158Y-77508500D01*
X142064844Y-77508500D01*
X142064845Y-77508499D01*
X142219497Y-77477737D01*
X142365179Y-77417394D01*
X142496289Y-77329789D01*
X142607789Y-77218289D01*
X142695394Y-77087179D01*
X142755737Y-76941497D01*
X142786500Y-76786842D01*
X142786500Y-76629158D01*
X142786500Y-76629155D01*
X142786499Y-76629153D01*
X142755738Y-76474510D01*
X142755737Y-76474503D01*
X142695394Y-76328821D01*
X142632397Y-76234539D01*
X142611520Y-76167863D01*
X142611500Y-76165650D01*
X142611500Y-61289499D01*
X142631185Y-61222460D01*
X142683989Y-61176705D01*
X142735500Y-61165499D01*
X143594002Y-61165499D01*
X143594008Y-61165499D01*
X143696797Y-61154999D01*
X143863334Y-61099814D01*
X144012656Y-61007712D01*
X144136712Y-60883656D01*
X144228814Y-60734334D01*
X144257794Y-60646875D01*
X144297567Y-60589432D01*
X144362082Y-60562609D01*
X144430858Y-60574924D01*
X144482058Y-60622467D01*
X144499500Y-60685881D01*
X144499500Y-90241324D01*
X144479815Y-90308363D01*
X144463181Y-90329005D01*
X141829005Y-92963181D01*
X141767682Y-92996666D01*
X141741324Y-92999500D01*
X134789758Y-92999500D01*
X134722719Y-92979815D01*
X134676964Y-92927011D01*
X134667020Y-92857853D01*
X134696045Y-92794297D01*
X134702077Y-92787819D01*
X134840104Y-92649792D01*
X134840106Y-92649788D01*
X134840109Y-92649786D01*
X134965048Y-92477820D01*
X134965047Y-92477820D01*
X134965051Y-92477816D01*
X135061557Y-92288412D01*
X135127246Y-92086243D01*
X135160500Y-91876287D01*
X135160500Y-91663713D01*
X135127246Y-91453757D01*
X135061557Y-91251588D01*
X134965051Y-91062184D01*
X134965049Y-91062181D01*
X134965048Y-91062179D01*
X134840109Y-90890213D01*
X134726569Y-90776673D01*
X134693084Y-90715350D01*
X134698068Y-90645658D01*
X134739940Y-90589725D01*
X134770915Y-90572810D01*
X134902331Y-90523796D01*
X135017546Y-90437546D01*
X135103796Y-90322331D01*
X135154091Y-90187483D01*
X135160500Y-90127873D01*
X135160500Y-89878711D01*
X138149500Y-89878711D01*
X138149500Y-90121288D01*
X138175967Y-90322335D01*
X138181162Y-90361789D01*
X138212554Y-90478944D01*
X138243947Y-90596104D01*
X138331433Y-90807314D01*
X138336776Y-90820212D01*
X138458064Y-91030289D01*
X138458066Y-91030292D01*
X138458067Y-91030293D01*
X138605733Y-91222736D01*
X138605739Y-91222743D01*
X138777256Y-91394260D01*
X138777263Y-91394266D01*
X138866830Y-91462993D01*
X138969711Y-91541936D01*
X139179788Y-91663224D01*
X139403900Y-91756054D01*
X139638211Y-91818838D01*
X139818586Y-91842584D01*
X139878711Y-91850500D01*
X139878712Y-91850500D01*
X140121289Y-91850500D01*
X140169388Y-91844167D01*
X140361789Y-91818838D01*
X140596100Y-91756054D01*
X140820212Y-91663224D01*
X141030289Y-91541936D01*
X141222738Y-91394265D01*
X141394265Y-91222738D01*
X141541936Y-91030289D01*
X141663224Y-90820212D01*
X141756054Y-90596100D01*
X141818838Y-90361789D01*
X141850500Y-90121288D01*
X141850500Y-89878712D01*
X141818838Y-89638211D01*
X141756054Y-89403900D01*
X141663224Y-89179788D01*
X141541936Y-88969711D01*
X141394265Y-88777262D01*
X141394260Y-88777256D01*
X141222743Y-88605739D01*
X141222736Y-88605733D01*
X141030293Y-88458067D01*
X141030292Y-88458066D01*
X141030289Y-88458064D01*
X140820212Y-88336776D01*
X140808991Y-88332128D01*
X140596104Y-88243947D01*
X140361785Y-88181161D01*
X140121289Y-88149500D01*
X140121288Y-88149500D01*
X139878712Y-88149500D01*
X139878711Y-88149500D01*
X139638214Y-88181161D01*
X139403895Y-88243947D01*
X139179794Y-88336773D01*
X139179785Y-88336777D01*
X138969706Y-88458067D01*
X138777263Y-88605733D01*
X138777256Y-88605739D01*
X138605739Y-88777256D01*
X138605733Y-88777263D01*
X138458067Y-88969706D01*
X138336777Y-89179785D01*
X138336773Y-89179794D01*
X138243947Y-89403895D01*
X138181161Y-89638214D01*
X138149500Y-89878711D01*
X135160500Y-89878711D01*
X135160499Y-89179794D01*
X135160499Y-88332129D01*
X135160498Y-88332123D01*
X135154091Y-88272516D01*
X135103797Y-88137671D01*
X135103793Y-88137664D01*
X135017547Y-88022455D01*
X135017544Y-88022452D01*
X134902335Y-87936206D01*
X134902328Y-87936202D01*
X134767482Y-87885908D01*
X134767483Y-87885908D01*
X134707883Y-87879501D01*
X134707881Y-87879500D01*
X134707873Y-87879500D01*
X134707864Y-87879500D01*
X132912129Y-87879500D01*
X132912123Y-87879501D01*
X132852516Y-87885908D01*
X132717671Y-87936202D01*
X132717664Y-87936206D01*
X132602455Y-88022452D01*
X132602452Y-88022455D01*
X132516206Y-88137664D01*
X132516203Y-88137669D01*
X132467189Y-88269083D01*
X132425317Y-88325016D01*
X132359853Y-88349433D01*
X132291580Y-88334581D01*
X132263326Y-88313430D01*
X132149786Y-88199890D01*
X131977820Y-88074951D01*
X131788414Y-87978444D01*
X131788413Y-87978443D01*
X131788412Y-87978443D01*
X131586243Y-87912754D01*
X131586241Y-87912753D01*
X131586240Y-87912753D01*
X131424957Y-87887208D01*
X131376287Y-87879500D01*
X131163713Y-87879500D01*
X131115042Y-87887208D01*
X130953760Y-87912753D01*
X130751585Y-87978444D01*
X130562179Y-88074951D01*
X130390213Y-88199890D01*
X130239890Y-88350213D01*
X130114949Y-88522182D01*
X130110484Y-88530946D01*
X130062509Y-88581742D01*
X129994688Y-88598536D01*
X129928553Y-88575998D01*
X129889516Y-88530946D01*
X129885050Y-88522182D01*
X129760109Y-88350213D01*
X129609786Y-88199890D01*
X129437820Y-88074951D01*
X129248414Y-87978444D01*
X129248413Y-87978443D01*
X129248412Y-87978443D01*
X129046243Y-87912754D01*
X129046241Y-87912753D01*
X129046240Y-87912753D01*
X128884957Y-87887208D01*
X128836287Y-87879500D01*
X128623713Y-87879500D01*
X128575042Y-87887208D01*
X128413760Y-87912753D01*
X128211585Y-87978444D01*
X128022179Y-88074951D01*
X127850213Y-88199890D01*
X127699890Y-88350213D01*
X127574949Y-88522182D01*
X127570484Y-88530946D01*
X127522509Y-88581742D01*
X127454688Y-88598536D01*
X127388553Y-88575998D01*
X127349516Y-88530946D01*
X127345050Y-88522182D01*
X127220109Y-88350213D01*
X127069786Y-88199890D01*
X126897819Y-88074950D01*
X126883203Y-88067503D01*
X126832408Y-88019527D01*
X126815500Y-87957019D01*
X126815500Y-86972452D01*
X126835185Y-86905413D01*
X126851819Y-86884771D01*
X131098771Y-82637819D01*
X131160094Y-82604334D01*
X131186452Y-82601500D01*
X132741650Y-82601500D01*
X132808689Y-82621185D01*
X132810541Y-82622398D01*
X132904821Y-82685394D01*
X132904823Y-82685395D01*
X132904827Y-82685397D01*
X133050498Y-82745735D01*
X133050503Y-82745737D01*
X133205153Y-82776499D01*
X133205156Y-82776500D01*
X133205158Y-82776500D01*
X133362844Y-82776500D01*
X133362845Y-82776499D01*
X133517497Y-82745737D01*
X133663179Y-82685394D01*
X133794289Y-82597789D01*
X133905789Y-82486289D01*
X133993394Y-82355179D01*
X134053737Y-82209497D01*
X134084500Y-82054842D01*
X134084500Y-81897158D01*
X134084500Y-81897155D01*
X134084499Y-81897153D01*
X134073262Y-81840662D01*
X134053737Y-81742503D01*
X134053735Y-81742498D01*
X133993397Y-81596827D01*
X133993390Y-81596814D01*
X133905789Y-81465711D01*
X133905786Y-81465707D01*
X133794292Y-81354213D01*
X133794288Y-81354210D01*
X133663185Y-81266609D01*
X133663172Y-81266602D01*
X133517501Y-81206264D01*
X133517489Y-81206261D01*
X133362845Y-81175500D01*
X133362842Y-81175500D01*
X133205158Y-81175500D01*
X133205155Y-81175500D01*
X133050510Y-81206261D01*
X133050498Y-81206264D01*
X132904827Y-81266602D01*
X132904815Y-81266609D01*
X132810541Y-81329602D01*
X132743864Y-81350480D01*
X132741650Y-81350500D01*
X130814389Y-81350500D01*
X130763535Y-81360615D01*
X130763530Y-81360616D01*
X130753971Y-81362518D01*
X130693548Y-81374537D01*
X130646397Y-81394067D01*
X130579715Y-81421688D01*
X130579714Y-81421689D01*
X130557347Y-81436633D01*
X130557344Y-81436635D01*
X130477268Y-81490140D01*
X130433705Y-81533703D01*
X130390142Y-81577267D01*
X125793760Y-86173648D01*
X125793751Y-86173657D01*
X125791270Y-86176139D01*
X125791267Y-86176142D01*
X125704142Y-86263267D01*
X125680243Y-86299035D01*
X125675429Y-86306239D01*
X125675424Y-86306245D01*
X125635690Y-86365709D01*
X125635685Y-86365718D01*
X125588540Y-86479538D01*
X125588535Y-86479554D01*
X125566390Y-86590888D01*
X125566391Y-86590889D01*
X125564500Y-86600396D01*
X125564500Y-87957019D01*
X125544815Y-88024058D01*
X125496797Y-88067503D01*
X125482180Y-88074950D01*
X125310213Y-88199890D01*
X125159890Y-88350213D01*
X125034951Y-88522179D01*
X124938444Y-88711585D01*
X124872753Y-88913760D01*
X124839500Y-89123713D01*
X124839500Y-89336287D01*
X124872754Y-89546243D01*
X124902637Y-89638214D01*
X124938444Y-89748414D01*
X125034951Y-89937820D01*
X125159890Y-90109786D01*
X125310213Y-90260109D01*
X125482179Y-90385048D01*
X125482181Y-90385049D01*
X125482184Y-90385051D01*
X125491493Y-90389794D01*
X125542290Y-90437766D01*
X125559087Y-90505587D01*
X125536552Y-90571722D01*
X125491505Y-90610760D01*
X125482446Y-90615376D01*
X125482440Y-90615380D01*
X125428282Y-90654727D01*
X125428282Y-90654728D01*
X126060591Y-91287037D01*
X125997007Y-91304075D01*
X125882993Y-91369901D01*
X125789901Y-91462993D01*
X125724075Y-91577007D01*
X125707037Y-91640591D01*
X125074728Y-91008282D01*
X125074727Y-91008282D01*
X125035380Y-91062439D01*
X124938904Y-91251782D01*
X124873242Y-91453869D01*
X124873242Y-91453872D01*
X124840000Y-91663753D01*
X124840000Y-91876246D01*
X124873242Y-92086127D01*
X124873242Y-92086130D01*
X124938904Y-92288217D01*
X125035375Y-92477550D01*
X125074728Y-92531716D01*
X125707037Y-91899408D01*
X125724075Y-91962993D01*
X125789901Y-92077007D01*
X125882993Y-92170099D01*
X125997007Y-92235925D01*
X126060590Y-92252962D01*
X125421154Y-92892397D01*
X125412385Y-92934147D01*
X125363334Y-92983904D01*
X125303130Y-92999500D01*
X120624500Y-92999500D01*
X120557461Y-92979815D01*
X120511706Y-92927011D01*
X120500500Y-92875500D01*
X120500500Y-92086941D01*
X120520185Y-92019902D01*
X120572989Y-91974147D01*
X120642147Y-91964203D01*
X120705703Y-91993228D01*
X120712181Y-91999260D01*
X120774707Y-92061786D01*
X120774711Y-92061789D01*
X120905814Y-92149390D01*
X120905827Y-92149397D01*
X121032824Y-92202000D01*
X121051503Y-92209737D01*
X121183158Y-92235925D01*
X121206153Y-92240499D01*
X121206156Y-92240500D01*
X121206158Y-92240500D01*
X121363844Y-92240500D01*
X121363845Y-92240499D01*
X121518497Y-92209737D01*
X121664179Y-92149394D01*
X121795289Y-92061789D01*
X121906789Y-91950289D01*
X121994394Y-91819179D01*
X122054737Y-91673497D01*
X122056781Y-91663222D01*
X122062457Y-91634689D01*
X122062457Y-91634688D01*
X122085499Y-91518846D01*
X122085500Y-91518844D01*
X122085500Y-77117847D01*
X122105185Y-77050808D01*
X122157989Y-77005053D01*
X122185309Y-76996230D01*
X122201291Y-76993050D01*
X122318497Y-76969737D01*
X122464179Y-76909394D01*
X122595289Y-76821789D01*
X122706789Y-76710289D01*
X122794394Y-76579179D01*
X122854737Y-76433497D01*
X122885500Y-76278842D01*
X122885500Y-76121158D01*
X122885500Y-76121155D01*
X122885499Y-76121153D01*
X122878549Y-76086214D01*
X122854737Y-75966503D01*
X122819820Y-75882205D01*
X122794397Y-75820827D01*
X122794390Y-75820814D01*
X122706789Y-75689711D01*
X122706786Y-75689707D01*
X122595295Y-75578216D01*
X122590834Y-75574555D01*
X122551500Y-75516809D01*
X122545500Y-75478702D01*
X122545500Y-72714510D01*
X122545499Y-72714506D01*
X122521464Y-72593672D01*
X122521463Y-72593665D01*
X122479649Y-72492718D01*
X122474312Y-72479832D01*
X122443760Y-72434108D01*
X122428834Y-72411770D01*
X122405858Y-72377383D01*
X122315637Y-72287162D01*
X122315606Y-72287133D01*
X119995033Y-69966560D01*
X119987743Y-69959270D01*
X119987741Y-69959267D01*
X119900616Y-69872142D01*
X119849392Y-69837915D01*
X119798169Y-69803688D01*
X119798166Y-69803686D01*
X119798163Y-69803685D01*
X119724486Y-69773168D01*
X119724484Y-69773167D01*
X119717675Y-69770347D01*
X119684335Y-69756537D01*
X119623912Y-69744518D01*
X119619189Y-69743578D01*
X119619187Y-69743578D01*
X119563493Y-69732500D01*
X119563490Y-69732500D01*
X119563489Y-69732500D01*
X109276452Y-69732500D01*
X109209413Y-69712815D01*
X109188771Y-69696181D01*
X108357819Y-68865229D01*
X108324334Y-68803906D01*
X108321500Y-68777548D01*
X108321500Y-67852350D01*
X108341185Y-67785311D01*
X108342398Y-67783459D01*
X108342809Y-67782843D01*
X108405394Y-67689179D01*
X108465737Y-67543497D01*
X108496500Y-67388842D01*
X108496500Y-67231158D01*
X108496500Y-67231155D01*
X108496499Y-67231153D01*
X108465738Y-67076510D01*
X108465737Y-67076503D01*
X108465735Y-67076498D01*
X108405397Y-66930827D01*
X108405390Y-66930814D01*
X108317789Y-66799711D01*
X108317786Y-66799707D01*
X108206292Y-66688213D01*
X108206288Y-66688210D01*
X108075185Y-66600609D01*
X108075172Y-66600602D01*
X107929501Y-66540264D01*
X107929489Y-66540261D01*
X107774845Y-66509500D01*
X107774842Y-66509500D01*
X107617158Y-66509500D01*
X107617155Y-66509500D01*
X107462510Y-66540261D01*
X107462498Y-66540264D01*
X107316827Y-66600602D01*
X107316814Y-66600609D01*
X107185711Y-66688210D01*
X107185707Y-66688213D01*
X107074213Y-66799707D01*
X107074210Y-66799711D01*
X106986609Y-66930814D01*
X106986602Y-66930827D01*
X106926264Y-67076498D01*
X106926261Y-67076510D01*
X106895500Y-67231153D01*
X106895500Y-67388846D01*
X106926261Y-67543489D01*
X106926264Y-67543501D01*
X106986602Y-67689172D01*
X106986609Y-67689184D01*
X107049602Y-67783459D01*
X107070480Y-67850136D01*
X107070500Y-67852350D01*
X107070500Y-69149611D01*
X107094535Y-69270444D01*
X107094540Y-69270461D01*
X107141685Y-69384281D01*
X107141687Y-69384285D01*
X107141688Y-69384286D01*
X107166115Y-69420842D01*
X107210142Y-69486733D01*
X107297267Y-69573858D01*
X107297270Y-69573860D01*
X107304988Y-69581578D01*
X107831229Y-70107819D01*
X107864714Y-70169142D01*
X107859730Y-70238834D01*
X107817858Y-70294767D01*
X107752394Y-70319184D01*
X107743548Y-70319500D01*
X106601153Y-70319500D01*
X106446510Y-70350260D01*
X106446502Y-70350262D01*
X106300824Y-70410604D01*
X106300814Y-70410609D01*
X106169711Y-70498210D01*
X106169707Y-70498213D01*
X102574741Y-74093181D01*
X102513418Y-74126666D01*
X102487060Y-74129500D01*
X100886155Y-74129500D01*
X100731510Y-74160261D01*
X100731498Y-74160264D01*
X100585827Y-74220602D01*
X100585814Y-74220609D01*
X100454711Y-74308210D01*
X100454707Y-74308213D01*
X100343213Y-74419707D01*
X100343210Y-74419711D01*
X100255609Y-74550814D01*
X100255602Y-74550827D01*
X100195264Y-74696498D01*
X100195261Y-74696510D01*
X100164500Y-74851153D01*
X100164500Y-75008846D01*
X100195261Y-75163489D01*
X100195264Y-75163501D01*
X100255602Y-75309172D01*
X100255609Y-75309185D01*
X100343210Y-75440288D01*
X100343213Y-75440292D01*
X100454707Y-75551786D01*
X100454711Y-75551789D01*
X100585814Y-75639390D01*
X100585827Y-75639397D01*
X100707288Y-75689707D01*
X100731503Y-75699737D01*
X100886153Y-75730499D01*
X100886156Y-75730500D01*
X100886158Y-75730500D01*
X102948844Y-75730500D01*
X102948845Y-75730499D01*
X103103497Y-75699737D01*
X103249179Y-75639394D01*
X103380289Y-75551789D01*
X105307351Y-73624725D01*
X105368672Y-73591242D01*
X105438363Y-73596226D01*
X105494297Y-73638097D01*
X105518714Y-73703562D01*
X105517969Y-73728593D01*
X105499501Y-73868869D01*
X105499500Y-73868886D01*
X105499500Y-92875500D01*
X105479815Y-92942539D01*
X105427011Y-92988294D01*
X105375500Y-92999500D01*
X98258676Y-92999500D01*
X98191637Y-92979815D01*
X98170995Y-92963181D01*
X95536819Y-90329005D01*
X95503334Y-90267682D01*
X95500500Y-90241324D01*
X95500500Y-89878711D01*
X98149500Y-89878711D01*
X98149500Y-90121288D01*
X98175967Y-90322335D01*
X98181162Y-90361789D01*
X98212554Y-90478944D01*
X98243947Y-90596104D01*
X98331433Y-90807314D01*
X98336776Y-90820212D01*
X98458064Y-91030289D01*
X98458066Y-91030292D01*
X98458067Y-91030293D01*
X98605733Y-91222736D01*
X98605739Y-91222743D01*
X98777256Y-91394260D01*
X98777263Y-91394266D01*
X98866830Y-91462993D01*
X98969711Y-91541936D01*
X99179788Y-91663224D01*
X99403900Y-91756054D01*
X99638211Y-91818838D01*
X99818586Y-91842584D01*
X99878711Y-91850500D01*
X99878712Y-91850500D01*
X100121289Y-91850500D01*
X100169388Y-91844167D01*
X100361789Y-91818838D01*
X100596100Y-91756054D01*
X100820212Y-91663224D01*
X101030289Y-91541936D01*
X101222738Y-91394265D01*
X101394265Y-91222738D01*
X101541936Y-91030289D01*
X101663224Y-90820212D01*
X101756054Y-90596100D01*
X101818838Y-90361789D01*
X101850500Y-90121288D01*
X101850500Y-89878712D01*
X101818838Y-89638211D01*
X101756054Y-89403900D01*
X101663224Y-89179788D01*
X101541936Y-88969711D01*
X101394265Y-88777262D01*
X101394260Y-88777256D01*
X101222743Y-88605739D01*
X101222736Y-88605733D01*
X101030293Y-88458067D01*
X101030292Y-88458066D01*
X101030289Y-88458064D01*
X100820212Y-88336776D01*
X100808991Y-88332128D01*
X100596104Y-88243947D01*
X100361785Y-88181161D01*
X100121289Y-88149500D01*
X100121288Y-88149500D01*
X99878712Y-88149500D01*
X99878711Y-88149500D01*
X99638214Y-88181161D01*
X99403895Y-88243947D01*
X99179794Y-88336773D01*
X99179785Y-88336777D01*
X98969706Y-88458067D01*
X98777263Y-88605733D01*
X98777256Y-88605739D01*
X98605739Y-88777256D01*
X98605733Y-88777263D01*
X98458067Y-88969706D01*
X98336777Y-89179785D01*
X98336773Y-89179794D01*
X98243947Y-89403895D01*
X98181161Y-89638214D01*
X98149500Y-89878711D01*
X95500500Y-89878711D01*
X95500500Y-77157135D01*
X95939500Y-77157135D01*
X95939500Y-79052870D01*
X95939501Y-79052876D01*
X95945908Y-79112483D01*
X95996202Y-79247328D01*
X95996206Y-79247335D01*
X96082452Y-79362544D01*
X96082455Y-79362547D01*
X96197667Y-79448796D01*
X96199010Y-79449529D01*
X96200090Y-79450609D01*
X96204769Y-79454112D01*
X96204265Y-79454784D01*
X96248412Y-79498937D01*
X96263261Y-79567211D01*
X96238840Y-79632674D01*
X96227260Y-79646037D01*
X96207165Y-79666132D01*
X96207159Y-79666139D01*
X96084091Y-79845798D01*
X95996141Y-80044986D01*
X95996135Y-80045002D01*
X95946283Y-80256960D01*
X95946281Y-80256976D01*
X95940000Y-80347471D01*
X95940000Y-80395000D01*
X97474314Y-80395000D01*
X97469920Y-80399394D01*
X97417259Y-80490606D01*
X97390000Y-80592339D01*
X97390000Y-80697661D01*
X97417259Y-80799394D01*
X97469920Y-80890606D01*
X97474314Y-80895000D01*
X95940001Y-80895000D01*
X95940001Y-80942527D01*
X95946281Y-81033022D01*
X95946283Y-81033038D01*
X95996135Y-81244997D01*
X95996141Y-81245013D01*
X96084091Y-81444201D01*
X96207159Y-81623860D01*
X96207164Y-81623866D01*
X96361133Y-81777835D01*
X96361141Y-81777842D01*
X96411586Y-81812398D01*
X96455768Y-81866524D01*
X96463674Y-81935945D01*
X96432793Y-81998620D01*
X96411586Y-82016996D01*
X96360820Y-82051771D01*
X96360812Y-82051778D01*
X96206778Y-82205812D01*
X96206773Y-82205818D01*
X96136018Y-82309107D01*
X96083657Y-82385546D01*
X96083655Y-82385549D01*
X96083655Y-82385550D01*
X95995662Y-82584836D01*
X95995659Y-82584843D01*
X95945786Y-82796890D01*
X95945784Y-82796906D01*
X95939500Y-82887444D01*
X95939500Y-83482555D01*
X95945784Y-83573093D01*
X95945786Y-83573109D01*
X95995659Y-83785156D01*
X95995661Y-83785161D01*
X95995662Y-83785164D01*
X96083657Y-83984454D01*
X96150297Y-84081736D01*
X96206773Y-84164181D01*
X96206778Y-84164187D01*
X96360812Y-84318221D01*
X96360825Y-84318232D01*
X96411143Y-84352701D01*
X96455326Y-84406827D01*
X96463232Y-84476248D01*
X96432351Y-84538923D01*
X96411143Y-84557299D01*
X96360825Y-84591767D01*
X96360812Y-84591778D01*
X96206778Y-84745812D01*
X96206773Y-84745818D01*
X96136018Y-84849107D01*
X96083657Y-84925546D01*
X96083655Y-84925549D01*
X96083655Y-84925550D01*
X95995662Y-85124836D01*
X95995659Y-85124843D01*
X95945786Y-85336890D01*
X95945784Y-85336906D01*
X95939500Y-85427444D01*
X95939500Y-86022555D01*
X95945784Y-86113093D01*
X95945786Y-86113109D01*
X95995659Y-86325156D01*
X95995661Y-86325161D01*
X95995662Y-86325164D01*
X96083657Y-86524454D01*
X96135679Y-86600396D01*
X96206773Y-86704181D01*
X96206778Y-86704187D01*
X96360812Y-86858221D01*
X96360818Y-86858226D01*
X96540546Y-86981343D01*
X96739836Y-87069338D01*
X96739841Y-87069339D01*
X96739843Y-87069340D01*
X96951890Y-87119213D01*
X96951895Y-87119213D01*
X96951901Y-87119215D01*
X97002204Y-87122706D01*
X97042444Y-87125500D01*
X97042448Y-87125500D01*
X98537556Y-87125500D01*
X98573770Y-87122986D01*
X98628099Y-87119215D01*
X98628105Y-87119213D01*
X98628109Y-87119213D01*
X98840156Y-87069340D01*
X98840156Y-87069339D01*
X98840164Y-87069338D01*
X99039454Y-86981343D01*
X99219182Y-86858226D01*
X99373226Y-86704182D01*
X99496343Y-86524454D01*
X99584338Y-86325164D01*
X99588788Y-86306245D01*
X99634213Y-86113109D01*
X99634213Y-86113105D01*
X99634215Y-86113099D01*
X99640500Y-86022552D01*
X99640500Y-85427448D01*
X99634215Y-85336901D01*
X99634213Y-85336895D01*
X99634213Y-85336890D01*
X99584340Y-85124843D01*
X99584339Y-85124841D01*
X99584338Y-85124836D01*
X99496343Y-84925546D01*
X99373226Y-84745818D01*
X99373221Y-84745812D01*
X99219187Y-84591778D01*
X99219181Y-84591773D01*
X99168856Y-84557300D01*
X99124673Y-84503174D01*
X99116767Y-84433753D01*
X99147647Y-84371078D01*
X99168856Y-84352700D01*
X99219182Y-84318226D01*
X99373226Y-84164182D01*
X99496343Y-83984454D01*
X99584338Y-83785164D01*
X99634215Y-83573099D01*
X99640500Y-83482552D01*
X99640500Y-83233153D01*
X101307500Y-83233153D01*
X101307500Y-83390846D01*
X101338261Y-83545489D01*
X101338264Y-83545501D01*
X101398602Y-83691172D01*
X101398609Y-83691185D01*
X101486210Y-83822288D01*
X101486213Y-83822292D01*
X101597707Y-83933786D01*
X101597711Y-83933789D01*
X101728814Y-84021390D01*
X101728827Y-84021397D01*
X101816230Y-84057599D01*
X101874503Y-84081737D01*
X101985716Y-84103858D01*
X102047623Y-84136241D01*
X102049203Y-84137793D01*
X103478181Y-85566771D01*
X103511666Y-85628094D01*
X103514500Y-85654452D01*
X103514500Y-90897650D01*
X103494815Y-90964689D01*
X103493602Y-90966541D01*
X103430609Y-91060815D01*
X103430602Y-91060828D01*
X103370264Y-91206498D01*
X103370261Y-91206510D01*
X103339500Y-91361153D01*
X103339500Y-91518846D01*
X103370261Y-91673489D01*
X103370264Y-91673501D01*
X103430602Y-91819172D01*
X103430609Y-91819185D01*
X103518210Y-91950288D01*
X103518213Y-91950292D01*
X103629707Y-92061786D01*
X103629711Y-92061789D01*
X103760814Y-92149390D01*
X103760827Y-92149397D01*
X103887824Y-92202000D01*
X103906503Y-92209737D01*
X104038158Y-92235925D01*
X104061153Y-92240499D01*
X104061156Y-92240500D01*
X104061158Y-92240500D01*
X104218844Y-92240500D01*
X104218845Y-92240499D01*
X104373497Y-92209737D01*
X104519179Y-92149394D01*
X104650289Y-92061789D01*
X104761789Y-91950289D01*
X104849394Y-91819179D01*
X104909737Y-91673497D01*
X104940500Y-91518842D01*
X104940500Y-91361158D01*
X104940500Y-91361155D01*
X104940499Y-91361153D01*
X104935786Y-91337458D01*
X104909737Y-91206503D01*
X104904384Y-91193579D01*
X104849397Y-91060828D01*
X104849396Y-91060827D01*
X104849394Y-91060821D01*
X104786397Y-90966539D01*
X104765520Y-90899863D01*
X104765500Y-90897650D01*
X104765500Y-85282396D01*
X104765500Y-85282394D01*
X104741463Y-85161548D01*
X104726259Y-85124843D01*
X104723505Y-85118193D01*
X104723501Y-85118185D01*
X104721932Y-85114397D01*
X104694312Y-85047715D01*
X104677256Y-85022190D01*
X104625858Y-84945267D01*
X104625856Y-84945264D01*
X104535637Y-84855045D01*
X104535606Y-84855016D01*
X102933793Y-83253203D01*
X102900308Y-83191880D01*
X102899887Y-83189864D01*
X102877737Y-83078503D01*
X102853599Y-83020230D01*
X102817397Y-82932827D01*
X102817390Y-82932814D01*
X102729789Y-82801711D01*
X102729786Y-82801707D01*
X102618292Y-82690213D01*
X102618288Y-82690210D01*
X102487185Y-82602609D01*
X102487172Y-82602602D01*
X102341501Y-82542264D01*
X102341489Y-82542261D01*
X102186845Y-82511500D01*
X102186842Y-82511500D01*
X102029158Y-82511500D01*
X102029155Y-82511500D01*
X101874510Y-82542261D01*
X101874498Y-82542264D01*
X101728827Y-82602602D01*
X101728814Y-82602609D01*
X101597711Y-82690210D01*
X101597707Y-82690213D01*
X101486213Y-82801707D01*
X101486210Y-82801711D01*
X101398609Y-82932814D01*
X101398602Y-82932827D01*
X101338264Y-83078498D01*
X101338261Y-83078510D01*
X101307500Y-83233153D01*
X99640500Y-83233153D01*
X99640500Y-82887448D01*
X99634215Y-82796901D01*
X99634213Y-82796895D01*
X99634213Y-82796890D01*
X99584340Y-82584843D01*
X99584339Y-82584841D01*
X99584338Y-82584836D01*
X99496343Y-82385546D01*
X99373226Y-82205818D01*
X99373221Y-82205812D01*
X99219187Y-82051778D01*
X99219181Y-82051773D01*
X99168414Y-82016997D01*
X99124231Y-81962871D01*
X99116325Y-81893450D01*
X99147206Y-81830775D01*
X99168414Y-81812397D01*
X99218860Y-81777840D01*
X99218866Y-81777835D01*
X99372835Y-81623866D01*
X99372840Y-81623860D01*
X99495908Y-81444201D01*
X99583858Y-81245013D01*
X99583864Y-81244997D01*
X99633716Y-81033039D01*
X99633718Y-81033023D01*
X99640000Y-80942528D01*
X99640000Y-80895000D01*
X98105686Y-80895000D01*
X98110080Y-80890606D01*
X98162741Y-80799394D01*
X98190000Y-80697661D01*
X98190000Y-80592339D01*
X98162741Y-80490606D01*
X98110080Y-80399394D01*
X98105686Y-80395000D01*
X99639999Y-80395000D01*
X99639999Y-80347472D01*
X99633718Y-80256977D01*
X99633716Y-80256961D01*
X99583864Y-80045002D01*
X99583858Y-80044986D01*
X99495908Y-79845798D01*
X99372840Y-79666139D01*
X99372836Y-79666134D01*
X99352742Y-79646041D01*
X99319255Y-79584719D01*
X99324238Y-79515027D01*
X99366109Y-79459092D01*
X99380998Y-79449524D01*
X99382328Y-79448796D01*
X99382331Y-79448796D01*
X99497546Y-79362546D01*
X99583796Y-79247331D01*
X99634091Y-79112483D01*
X99640500Y-79052873D01*
X99640499Y-77157128D01*
X99634091Y-77097517D01*
X99630237Y-77087185D01*
X99583797Y-76962671D01*
X99583793Y-76962664D01*
X99497547Y-76847455D01*
X99497544Y-76847452D01*
X99382335Y-76761206D01*
X99382328Y-76761202D01*
X99247482Y-76710908D01*
X99247483Y-76710908D01*
X99187883Y-76704501D01*
X99187881Y-76704500D01*
X99187873Y-76704500D01*
X99187864Y-76704500D01*
X96392129Y-76704500D01*
X96392123Y-76704501D01*
X96332516Y-76710908D01*
X96197671Y-76761202D01*
X96197664Y-76761206D01*
X96082455Y-76847452D01*
X96082452Y-76847455D01*
X95996206Y-76962664D01*
X95996202Y-76962671D01*
X95945908Y-77097517D01*
X95939501Y-77157116D01*
X95939501Y-77157123D01*
X95939500Y-77157135D01*
X95500500Y-77157135D01*
X95500500Y-57487444D01*
X110735000Y-57487444D01*
X110735000Y-58082555D01*
X110741284Y-58173093D01*
X110741286Y-58173109D01*
X110791159Y-58385156D01*
X110791161Y-58385161D01*
X110791162Y-58385164D01*
X110879157Y-58584454D01*
X110979986Y-58731646D01*
X111002273Y-58764181D01*
X111002278Y-58764187D01*
X111156312Y-58918221D01*
X111156320Y-58918228D01*
X111207086Y-58953004D01*
X111251268Y-59007130D01*
X111259174Y-59076551D01*
X111228293Y-59139226D01*
X111207086Y-59157602D01*
X111156641Y-59192157D01*
X111156633Y-59192164D01*
X111002664Y-59346133D01*
X111002659Y-59346139D01*
X110879591Y-59525798D01*
X110791641Y-59724986D01*
X110791635Y-59725002D01*
X110741783Y-59936960D01*
X110741781Y-59936976D01*
X110735500Y-60027471D01*
X110735500Y-60075000D01*
X112269814Y-60075000D01*
X112265420Y-60079394D01*
X112212759Y-60170606D01*
X112185500Y-60272339D01*
X112185500Y-60377661D01*
X112212759Y-60479394D01*
X112265420Y-60570606D01*
X112269814Y-60575000D01*
X110735501Y-60575000D01*
X110735501Y-60622527D01*
X110741781Y-60713022D01*
X110741783Y-60713038D01*
X110791635Y-60924997D01*
X110791641Y-60925013D01*
X110879591Y-61124201D01*
X111002659Y-61303860D01*
X111002664Y-61303866D01*
X111156633Y-61457835D01*
X111156641Y-61457842D01*
X111207086Y-61492398D01*
X111251268Y-61546524D01*
X111259174Y-61615945D01*
X111228293Y-61678620D01*
X111207086Y-61696996D01*
X111156320Y-61731771D01*
X111156312Y-61731778D01*
X111002278Y-61885812D01*
X111002273Y-61885818D01*
X110931518Y-61989107D01*
X110879157Y-62065546D01*
X110879155Y-62065549D01*
X110879155Y-62065550D01*
X110791162Y-62264836D01*
X110791159Y-62264843D01*
X110741286Y-62476890D01*
X110741284Y-62476906D01*
X110735000Y-62567444D01*
X110735000Y-63162555D01*
X110741284Y-63253093D01*
X110741286Y-63253109D01*
X110791159Y-63465156D01*
X110791161Y-63465161D01*
X110791162Y-63465164D01*
X110879157Y-63664454D01*
X110979986Y-63811646D01*
X111002273Y-63844181D01*
X111002278Y-63844187D01*
X111156312Y-63998221D01*
X111156318Y-63998226D01*
X111336046Y-64121343D01*
X111535336Y-64209338D01*
X111535341Y-64209339D01*
X111535343Y-64209340D01*
X111747390Y-64259213D01*
X111747395Y-64259213D01*
X111747401Y-64259215D01*
X111797704Y-64262706D01*
X111837944Y-64265500D01*
X111837948Y-64265500D01*
X113333056Y-64265500D01*
X113369270Y-64262986D01*
X113423599Y-64259215D01*
X113423605Y-64259213D01*
X113423609Y-64259213D01*
X113635656Y-64209340D01*
X113635656Y-64209339D01*
X113635664Y-64209338D01*
X113834954Y-64121343D01*
X114014682Y-63998226D01*
X114168726Y-63844182D01*
X114291843Y-63664454D01*
X114379838Y-63465164D01*
X114379840Y-63465156D01*
X114429713Y-63253109D01*
X114429713Y-63253105D01*
X114429715Y-63253099D01*
X114436000Y-63162552D01*
X114436000Y-62567448D01*
X114429715Y-62476901D01*
X114429713Y-62476895D01*
X114429713Y-62476890D01*
X114379840Y-62264843D01*
X114379839Y-62264841D01*
X114379838Y-62264836D01*
X114291843Y-62065546D01*
X114168726Y-61885818D01*
X114168721Y-61885812D01*
X114014687Y-61731778D01*
X114014681Y-61731773D01*
X113963914Y-61696997D01*
X113919731Y-61642871D01*
X113911825Y-61573450D01*
X113942706Y-61510775D01*
X113963914Y-61492397D01*
X114014360Y-61457840D01*
X114014366Y-61457835D01*
X114168335Y-61303866D01*
X114168340Y-61303860D01*
X114291408Y-61124201D01*
X114379358Y-60925013D01*
X114379364Y-60924997D01*
X114429216Y-60713039D01*
X114429218Y-60713023D01*
X114435500Y-60622528D01*
X114435500Y-60575000D01*
X112901186Y-60575000D01*
X112905580Y-60570606D01*
X112958241Y-60479394D01*
X112985500Y-60377661D01*
X112985500Y-60272339D01*
X112958241Y-60170606D01*
X112905580Y-60079394D01*
X112901186Y-60075000D01*
X114435499Y-60075000D01*
X114435499Y-60027472D01*
X114429218Y-59936977D01*
X114429216Y-59936961D01*
X114379364Y-59725002D01*
X114379358Y-59724986D01*
X114291408Y-59525798D01*
X114168340Y-59346139D01*
X114168335Y-59346133D01*
X114069197Y-59246995D01*
X115293500Y-59246995D01*
X115293500Y-59483004D01*
X115293501Y-59483020D01*
X115324306Y-59717010D01*
X115385394Y-59944993D01*
X115475714Y-60163045D01*
X115475719Y-60163056D01*
X115538815Y-60272339D01*
X115593727Y-60367450D01*
X115593729Y-60367453D01*
X115593730Y-60367454D01*
X115737406Y-60554697D01*
X115737412Y-60554704D01*
X115904295Y-60721587D01*
X115904302Y-60721593D01*
X116014306Y-60806001D01*
X116091550Y-60865273D01*
X116194995Y-60924997D01*
X116295943Y-60983280D01*
X116295948Y-60983282D01*
X116295951Y-60983284D01*
X116514007Y-61073606D01*
X116741986Y-61134693D01*
X116975989Y-61165500D01*
X116975996Y-61165500D01*
X117212004Y-61165500D01*
X117212011Y-61165500D01*
X117446014Y-61134693D01*
X117673993Y-61073606D01*
X117892049Y-60983284D01*
X118096450Y-60865273D01*
X118283699Y-60721592D01*
X118307550Y-60697741D01*
X118338648Y-60666644D01*
X118450587Y-60554704D01*
X118450592Y-60554699D01*
X118594273Y-60367450D01*
X118712284Y-60163049D01*
X118802606Y-59944993D01*
X118863693Y-59717014D01*
X118894500Y-59483011D01*
X118894500Y-59247014D01*
X120374000Y-59247014D01*
X120374000Y-59482985D01*
X120404799Y-59716914D01*
X120465870Y-59944837D01*
X120556160Y-60162819D01*
X120556165Y-60162828D01*
X120674144Y-60367171D01*
X120674145Y-60367172D01*
X120736721Y-60448723D01*
X121572958Y-59612487D01*
X121597978Y-59672890D01*
X121669112Y-59779351D01*
X121759649Y-59869888D01*
X121866110Y-59941022D01*
X121926511Y-59966041D01*
X121090275Y-60802277D01*
X121171827Y-60864854D01*
X121171828Y-60864855D01*
X121376171Y-60982834D01*
X121376180Y-60982839D01*
X121594163Y-61073129D01*
X121594161Y-61073129D01*
X121822085Y-61134200D01*
X122056014Y-61164999D01*
X122056029Y-61165000D01*
X122291971Y-61165000D01*
X122291985Y-61164999D01*
X122525914Y-61134200D01*
X122753837Y-61073129D01*
X122971819Y-60982839D01*
X122971828Y-60982834D01*
X123176181Y-60864850D01*
X123257723Y-60802279D01*
X123257723Y-60802276D01*
X122421487Y-59966041D01*
X122481890Y-59941022D01*
X122588351Y-59869888D01*
X122678888Y-59779351D01*
X122750022Y-59672890D01*
X122775041Y-59612487D01*
X123611276Y-60448723D01*
X123611279Y-60448723D01*
X123673850Y-60367181D01*
X123791834Y-60162828D01*
X123791839Y-60162819D01*
X123882129Y-59944837D01*
X123943200Y-59716914D01*
X123973999Y-59482985D01*
X123974000Y-59482971D01*
X123974000Y-59247028D01*
X123973999Y-59247014D01*
X123943200Y-59013085D01*
X123882129Y-58785162D01*
X123791839Y-58567180D01*
X123791834Y-58567171D01*
X123673855Y-58362828D01*
X123673854Y-58362827D01*
X123611277Y-58281275D01*
X122775041Y-59117511D01*
X122750022Y-59057110D01*
X122678888Y-58950649D01*
X122588351Y-58860112D01*
X122481890Y-58788978D01*
X122421488Y-58763958D01*
X123257723Y-57927721D01*
X123176172Y-57865145D01*
X123176171Y-57865144D01*
X122971828Y-57747165D01*
X122971819Y-57747160D01*
X122753836Y-57656870D01*
X122753838Y-57656870D01*
X122525914Y-57595799D01*
X122291985Y-57565000D01*
X122056014Y-57565000D01*
X121822085Y-57595799D01*
X121594162Y-57656870D01*
X121376180Y-57747160D01*
X121376171Y-57747165D01*
X121171828Y-57865144D01*
X121171818Y-57865150D01*
X121090275Y-57927720D01*
X121090275Y-57927721D01*
X121926512Y-58763958D01*
X121866110Y-58788978D01*
X121759649Y-58860112D01*
X121669112Y-58950649D01*
X121597978Y-59057110D01*
X121572958Y-59117511D01*
X120736721Y-58281275D01*
X120736720Y-58281275D01*
X120674150Y-58362818D01*
X120674144Y-58362828D01*
X120556165Y-58567171D01*
X120556160Y-58567180D01*
X120465870Y-58785162D01*
X120404799Y-59013085D01*
X120374000Y-59247014D01*
X118894500Y-59247014D01*
X118894500Y-59246989D01*
X118863693Y-59012986D01*
X118802606Y-58785007D01*
X118712284Y-58566951D01*
X118712282Y-58566948D01*
X118712280Y-58566943D01*
X118670118Y-58493918D01*
X118594273Y-58362550D01*
X118450592Y-58175301D01*
X118450587Y-58175295D01*
X118283704Y-58008412D01*
X118283697Y-58008406D01*
X118096454Y-57864730D01*
X118096453Y-57864729D01*
X118096450Y-57864727D01*
X118014957Y-57817677D01*
X117892056Y-57746719D01*
X117892045Y-57746714D01*
X117673993Y-57656394D01*
X117446010Y-57595306D01*
X117212020Y-57564501D01*
X117212017Y-57564500D01*
X117212011Y-57564500D01*
X116975989Y-57564500D01*
X116975983Y-57564500D01*
X116975979Y-57564501D01*
X116741989Y-57595306D01*
X116514006Y-57656394D01*
X116295954Y-57746714D01*
X116295943Y-57746719D01*
X116091545Y-57864730D01*
X115904302Y-58008406D01*
X115904295Y-58008412D01*
X115737412Y-58175295D01*
X115737406Y-58175302D01*
X115593730Y-58362545D01*
X115593727Y-58362549D01*
X115593727Y-58362550D01*
X115586014Y-58375909D01*
X115475719Y-58566943D01*
X115475714Y-58566954D01*
X115385394Y-58785006D01*
X115324306Y-59012989D01*
X115293501Y-59246979D01*
X115293500Y-59246995D01*
X114069197Y-59246995D01*
X114014366Y-59192164D01*
X114014356Y-59192156D01*
X113963914Y-59157603D01*
X113919731Y-59103478D01*
X113911824Y-59034057D01*
X113942704Y-58971382D01*
X113963914Y-58953003D01*
X113967350Y-58950649D01*
X114014682Y-58918226D01*
X114168726Y-58764182D01*
X114291843Y-58584454D01*
X114379838Y-58385164D01*
X114385158Y-58362545D01*
X114429713Y-58173109D01*
X114429713Y-58173105D01*
X114429715Y-58173099D01*
X114434015Y-58111156D01*
X114436000Y-58082555D01*
X114436000Y-57487444D01*
X114429715Y-57396906D01*
X114429715Y-57396901D01*
X114429713Y-57396895D01*
X114429713Y-57396890D01*
X114379840Y-57184843D01*
X114379839Y-57184841D01*
X114379838Y-57184836D01*
X114291843Y-56985546D01*
X114168726Y-56805818D01*
X114168721Y-56805812D01*
X114014687Y-56651778D01*
X114014681Y-56651773D01*
X113982146Y-56629486D01*
X113834954Y-56528657D01*
X113635664Y-56440662D01*
X113635661Y-56440661D01*
X113635656Y-56440659D01*
X113423609Y-56390786D01*
X113423593Y-56390784D01*
X113333056Y-56384500D01*
X113333052Y-56384500D01*
X111837948Y-56384500D01*
X111837944Y-56384500D01*
X111747406Y-56390784D01*
X111747390Y-56390786D01*
X111535343Y-56440659D01*
X111535336Y-56440662D01*
X111336050Y-56528655D01*
X111336049Y-56528655D01*
X111336046Y-56528657D01*
X111259607Y-56581018D01*
X111156318Y-56651773D01*
X111156312Y-56651778D01*
X111002278Y-56805812D01*
X111002273Y-56805818D01*
X110931518Y-56909107D01*
X110879157Y-56985546D01*
X110879155Y-56985549D01*
X110879155Y-56985550D01*
X110791162Y-57184836D01*
X110791159Y-57184843D01*
X110741286Y-57396890D01*
X110741284Y-57396906D01*
X110735000Y-57487444D01*
X95500500Y-57487444D01*
X95500500Y-49878711D01*
X98149500Y-49878711D01*
X98149500Y-50121288D01*
X98181161Y-50361785D01*
X98243947Y-50596104D01*
X98336773Y-50820205D01*
X98336776Y-50820212D01*
X98458064Y-51030289D01*
X98458066Y-51030292D01*
X98458067Y-51030293D01*
X98605733Y-51222736D01*
X98605739Y-51222743D01*
X98777256Y-51394260D01*
X98777262Y-51394265D01*
X98969711Y-51541936D01*
X99179788Y-51663224D01*
X99403900Y-51756054D01*
X99638211Y-51818838D01*
X99818586Y-51842584D01*
X99878711Y-51850500D01*
X99878712Y-51850500D01*
X100121289Y-51850500D01*
X100169388Y-51844167D01*
X100361789Y-51818838D01*
X100596100Y-51756054D01*
X100820212Y-51663224D01*
X101030289Y-51541936D01*
X101222738Y-51394265D01*
X101394265Y-51222738D01*
X101541936Y-51030289D01*
X101663224Y-50820212D01*
X101756054Y-50596100D01*
X101818838Y-50361789D01*
X101850500Y-50121288D01*
X101850500Y-49878712D01*
X101818838Y-49638211D01*
X101756054Y-49403900D01*
X101663224Y-49179788D01*
X101541936Y-48969711D01*
X101394265Y-48777262D01*
X101394260Y-48777256D01*
X101222743Y-48605739D01*
X101222736Y-48605733D01*
X101030293Y-48458067D01*
X101030292Y-48458066D01*
X101030289Y-48458064D01*
X100820212Y-48336776D01*
X100820205Y-48336773D01*
X100596104Y-48243947D01*
X100361785Y-48181161D01*
X100121289Y-48149500D01*
X100121288Y-48149500D01*
X99878712Y-48149500D01*
X99878711Y-48149500D01*
X99638214Y-48181161D01*
X99403895Y-48243947D01*
X99179794Y-48336773D01*
X99179785Y-48336777D01*
X98969706Y-48458067D01*
X98777263Y-48605733D01*
X98777256Y-48605739D01*
X98605739Y-48777256D01*
X98605733Y-48777263D01*
X98458067Y-48969706D01*
X98336777Y-49179785D01*
X98336773Y-49179794D01*
X98243947Y-49403895D01*
X98181161Y-49638214D01*
X98149500Y-49878711D01*
X95500500Y-49878711D01*
X95500500Y-48758676D01*
X95520185Y-48691637D01*
X95536819Y-48670995D01*
X100170995Y-44036819D01*
X100232318Y-44003334D01*
X100258676Y-44000500D01*
X102375500Y-44000500D01*
X102442539Y-44020185D01*
G37*
%TD.AperFunction*%
%TA.AperFunction,Conductor*%
G36*
X127027096Y-92253542D02*
G01*
X127060581Y-92314865D01*
X127055597Y-92384557D01*
X127027096Y-92428904D01*
X126848904Y-92607096D01*
X126787581Y-92640581D01*
X126717889Y-92635597D01*
X126673542Y-92607096D01*
X126319408Y-92252962D01*
X126382993Y-92235925D01*
X126497007Y-92170099D01*
X126590099Y-92077007D01*
X126655925Y-91962993D01*
X126672962Y-91899408D01*
X127027096Y-92253542D01*
G37*
%TD.AperFunction*%
%TA.AperFunction,Conductor*%
G36*
X126753557Y-90955403D02*
G01*
X126797904Y-90983904D01*
X126976096Y-91162096D01*
X127009581Y-91223419D01*
X127004597Y-91293111D01*
X126976096Y-91337458D01*
X126672962Y-91640591D01*
X126655925Y-91577007D01*
X126590099Y-91462993D01*
X126497007Y-91369901D01*
X126382993Y-91304075D01*
X126319408Y-91287037D01*
X126622542Y-90983904D01*
X126683865Y-90950419D01*
X126753557Y-90955403D01*
G37*
%TD.AperFunction*%
%TD*%
M02*
