%TF.GenerationSoftware,KiCad,Pcbnew,10.0.3*%
%TF.CreationDate,2026-05-16T08:47:48+02:00*%
%TF.ProjectId,motor,6d6f746f-722e-46b6-9963-61645f706362,rev?*%
%TF.SameCoordinates,Original*%
%TF.FileFunction,Profile,NP*%
%FSLAX46Y46*%
G04 Gerber Fmt 4.6, Leading zero omitted, Abs format (unit mm)*
G04 Created by KiCad (PCBNEW 10.0.3) date 2026-05-16 08:47:48*
%MOMM*%
%LPD*%
G01*
G04 APERTURE LIST*
%TA.AperFunction,Profile*%
%ADD10C,0.050000*%
%TD*%
G04 APERTURE END LIST*
D10*
X95000000Y-48500000D02*
X95000000Y-90500000D01*
X95000000Y-48500000D02*
X100000000Y-43500000D01*
X95000000Y-90500000D02*
X98000000Y-93500000D01*
X98000000Y-93500000D02*
X106000000Y-93500000D01*
X100000000Y-43500000D02*
X103000000Y-43500000D01*
X103000000Y-53000000D02*
X103000000Y-43500000D01*
X104500000Y-54500000D02*
G75*
G02*
X103000000Y-53000000I0J1500000D01*
G01*
X104500000Y-54500000D02*
X135500000Y-54500000D01*
X106000000Y-74000000D02*
X106000000Y-93500000D01*
X106000000Y-74000000D02*
G75*
G02*
X107500000Y-72500000I1500000J0D01*
G01*
X107500000Y-72500000D02*
X118500000Y-72500000D01*
X118500000Y-72500000D02*
G75*
G02*
X120000000Y-74000000I0J-1500000D01*
G01*
X120000000Y-93500000D02*
X120000000Y-74000000D01*
X137000000Y-43500000D02*
X140000000Y-43500000D01*
X137000000Y-53000000D02*
G75*
G02*
X135500000Y-54500000I-1500000J0D01*
G01*
X137000000Y-53000000D02*
X137000000Y-43500000D01*
X142000000Y-93500000D02*
X120000000Y-93500000D01*
X142000000Y-93500000D02*
X145000000Y-90500000D01*
X145000000Y-48500000D02*
X140000000Y-43500000D01*
X145000000Y-90500000D02*
X145000000Y-48500000D01*
M02*
